<mxfile host="app.diagrams.net" modified="2024-01-08T08:04:08.667Z" agent="Mozilla/5.0 (Macintosh; Intel Mac OS X 10_15_7) AppleWebKit/537.36 (KHTML, like Gecko) Chrome/120.0.0.0 Safari/537.36" version="22.1.16" etag="aKRAv-4njRnUOxJ7oicK" type="github">
  <diagram name="Page-1" id="roOhLSwZkukABS7ggt1f">
    <mxGraphModel>
      <root>
        <mxCell id="0" />
        <mxCell id="1" parent="0" />
      </root>
    </mxGraphModel>
  </diagram>
</mxfile>
